<svg version="1.1" id="Layer_1" xmlns="http://www.w3.org/2000/svg" xmlns:xlink="http://www.w3.org/1999/xlink" x="0px" y="0px"
	 width="100%" viewBox="0 0 1024 1024" enable-background="new 0 0 1024 1024" xml:space="preserve">
<path fill="#FFFFFF" opacity="1.000000" stroke="none" 
	d="
M494.000000,1025.000000 
	C329.333344,1025.000000 165.166672,1025.000000 1.000000,1025.000000 
	C1.000000,683.666687 1.000000,342.333344 1.000000,1.000000 
	C342.333344,1.000000 683.666687,1.000000 1025.000000,1.000000 
	C1025.000000,342.333344 1025.000000,683.666687 1025.000000,1025.000000 
	C848.166687,1025.000000 671.333313,1025.000000 494.000000,1025.000000 
M289.499481,290.227753 
	C286.168213,290.172485 282.836975,290.115417 279.505676,290.062744 
	C278.006348,290.039032 276.503754,290.080200 275.007965,289.996704 
	C252.129730,288.719910 244.711945,311.312561 251.903549,325.920776 
	C262.634583,347.718597 272.332489,370.023468 282.572113,392.065155 
	C295.097382,419.026917 307.777893,445.916595 320.296997,472.881226 
	C329.590149,492.897583 338.672455,513.011780 347.961060,533.030273 
	C356.168396,550.718445 364.619812,568.293518 372.802673,585.992859 
	C382.903137,607.839783 392.848938,629.758240 402.839691,651.655762 
	C410.447266,668.329834 418.428497,684.848572 425.510834,701.743530 
	C435.404266,725.344421 453.245667,739.839050 477.735199,743.592407 
	C496.475861,746.464783 515.885742,745.154358 535.001221,745.317139 
	C544.024963,745.393921 552.966797,744.236084 561.217957,739.955994 
	C567.016052,736.948181 573.308838,734.738647 578.722778,731.173401 
	C598.350952,718.247864 604.314453,696.537231 613.539062,676.809509 
	C611.425659,675.181702 609.906372,673.685852 608.112061,672.681091 
	C593.825867,664.680664 582.976807,653.054199 574.167419,639.583801 
	C559.553650,617.238037 548.343018,593.052856 537.299622,568.823608 
	C521.418884,533.981262 505.658203,499.083618 489.974579,464.152008 
	C469.300964,418.106323 448.747864,372.006561 428.151703,325.926117 
	C422.586151,313.474121 413.847900,303.795929 402.198730,296.853363 
	C393.867401,291.888123 384.563019,290.294495 374.972839,290.281433 
	C346.815125,290.243103 318.657318,290.245941 289.499481,290.227753 
M759.132263,361.649536 
	C764.892456,348.258545 770.906921,334.969421 776.324341,321.441193 
	C780.002014,312.257294 772.003723,293.547638 758.913940,291.299011 
	C755.644287,290.737305 752.309692,290.259125 749.003601,290.250122 
	C722.349487,290.177734 695.693359,290.053314 669.041077,290.292908 
	C647.354309,290.487885 630.841431,300.259277 620.432983,319.210876 
	C614.841797,329.391388 610.639954,340.332977 605.771484,350.912872 
	C598.588440,366.523102 591.324585,382.096283 584.175964,397.722229 
	C569.123596,430.625031 554.101013,463.541565 539.183105,496.505402 
	C538.563843,497.873688 538.591003,500.024384 539.222534,501.392578 
	C545.141479,514.215210 551.204590,526.972473 557.334229,539.696411 
	C562.439941,550.294800 567.286926,561.045837 572.957581,571.338562 
	C586.701477,596.284912 594.968872,624.549500 616.922363,644.564392 
	C619.530396,646.942078 622.198853,649.253479 625.108459,651.834412 
	C625.845398,650.471436 626.179565,649.926880 626.445679,649.350830 
	C656.024597,585.337402 685.605591,521.324829 715.169312,457.304321 
	C729.777100,425.671021 744.352173,394.022583 759.132263,361.649536 
z"/>
<path fill="#382BE8" opacity="1.000000" stroke="none" 
	d="
M289.999512,290.230225 
	C318.657318,290.245941 346.815125,290.243103 374.972839,290.281433 
	C384.563019,290.294495 393.867401,291.888123 402.198730,296.853363 
	C413.847900,303.795929 422.586151,313.474121 428.151703,325.926117 
	C448.747864,372.006561 469.300964,418.106323 489.974579,464.152008 
	C505.658203,499.083618 521.418884,533.981262 537.299622,568.823608 
	C548.343018,593.052856 559.553650,617.238037 574.167419,639.583801 
	C582.976807,653.054199 593.825867,664.680664 608.112061,672.681091 
	C609.906372,673.685852 611.425659,675.181702 613.539062,676.809509 
	C604.314453,696.537231 598.350952,718.247864 578.722778,731.173401 
	C573.308838,734.738647 567.016052,736.948181 561.217957,739.955994 
	C552.966797,744.236084 544.024963,745.393921 535.001221,745.317139 
	C515.885742,745.154358 496.475861,746.464783 477.735199,743.592407 
	C453.245667,739.839050 435.404266,725.344421 425.510834,701.743530 
	C418.428497,684.848572 410.447266,668.329834 402.839691,651.655762 
	C392.848938,629.758240 382.903137,607.839783 372.802673,585.992859 
	C364.619812,568.293518 356.168396,550.718445 347.961060,533.030273 
	C338.672455,513.011780 329.590149,492.897583 320.296997,472.881226 
	C307.777893,445.916595 295.097382,419.026917 282.572113,392.065155 
	C272.332489,370.023468 262.634583,347.718597 251.903549,325.920776 
	C244.711945,311.312561 252.129730,288.719910 275.007965,289.996704 
	C276.503754,290.080200 278.006348,290.039032 279.505676,290.062744 
	C282.836975,290.115417 286.168213,290.172485 289.999512,290.230225 
z"/>
<path fill="#382BE8" opacity="1.000000" stroke="none" 
	d="
M759.037109,362.015259 
	C744.352173,394.022583 729.777100,425.671021 715.169312,457.304321 
	C685.605591,521.324829 656.024597,585.337402 626.445679,649.350830 
	C626.179565,649.926880 625.845398,650.471436 625.108459,651.834412 
	C622.198853,649.253479 619.530396,646.942078 616.922363,644.564392 
	C594.968872,624.549500 586.701477,596.284912 572.957581,571.338562 
	C567.286926,561.045837 562.439941,550.294800 557.334229,539.696411 
	C551.204590,526.972473 545.141479,514.215210 539.222534,501.392578 
	C538.591003,500.024384 538.563843,497.873688 539.183105,496.505402 
	C554.101013,463.541565 569.123596,430.625031 584.175964,397.722229 
	C591.324585,382.096283 598.588440,366.523102 605.771484,350.912872 
	C610.639954,340.332977 614.841797,329.391388 620.432983,319.210876 
	C630.841431,300.259277 647.354309,290.487885 669.041077,290.292908 
	C695.693359,290.053314 722.349487,290.177734 749.003601,290.250122 
	C752.309692,290.259125 755.644287,290.737305 758.913940,291.299011 
	C772.003723,293.547638 780.002014,312.257294 776.324341,321.441193 
	C770.906921,334.969421 764.892456,348.258545 759.037109,362.015259 
z"/>
</svg>